<svg width="36" height="37" viewBox="0 0 36 37" fill="none" xmlns="http://www.w3.org/2000/svg">
<path d="M14.7994 33.5439L14.0652 28.7958C13.6002 28.62 13.1108 28.3813 12.5969 28.0799C12.0829 27.7784 11.6302 27.4644 11.2387 27.1378L6.90705 29.1727L3.49316 22.9927L7.45768 20.0158C7.40873 19.7897 7.37814 19.5322 7.36591 19.2433C7.35367 18.9544 7.34755 18.6969 7.34755 18.4708C7.34755 18.2447 7.35367 17.9872 7.36591 17.6983C7.37814 17.4094 7.40873 17.1519 7.45768 16.9258L3.49316 13.9489L6.90705 7.76892L11.2387 9.80379C11.6302 9.4772 12.0829 9.16318 12.5969 8.86172C13.1108 8.56026 13.6002 8.33416 14.0652 8.18343L14.7994 3.39774H21.5537L22.2879 8.14575C22.7529 8.3216 23.2484 8.55398 23.7746 8.84288C24.3007 9.13178 24.7474 9.45208 25.1145 9.80379L29.4461 7.76892L32.8599 13.9489L28.8954 16.8504C28.9444 17.1017 28.975 17.3717 28.9872 17.6606C28.9994 17.9495 29.0056 18.2196 29.0056 18.4708C29.0056 18.722 28.9994 18.9858 28.9872 19.2621C28.975 19.5385 28.9444 19.8022 28.8954 20.0535L32.8599 22.9927L29.4461 29.1727L25.1145 27.1378C24.7229 27.4644 24.2763 27.7847 23.7746 28.0987C23.2729 28.4127 22.7773 28.6451 22.2879 28.7958L21.5537 33.5439H14.7994ZM18.1766 23.3695C19.4981 23.3695 20.6238 22.8922 21.5537 21.9376C22.4837 20.983 22.9487 19.8274 22.9487 18.4708C22.9487 17.1142 22.4837 15.9586 21.5537 15.004C20.6238 14.0494 19.4981 13.5721 18.1766 13.5721C16.855 13.5721 15.7293 14.0494 14.7994 15.004C13.8694 15.9586 13.4045 17.1142 13.4045 18.4708C13.4045 19.8274 13.8694 20.983 14.7994 21.9376C15.7293 22.8922 16.855 23.3695 18.1766 23.3695ZM18.1766 21.1086C17.4669 21.1086 16.8612 20.8511 16.3595 20.3361C15.8578 19.8211 15.607 19.1993 15.607 18.4708C15.607 17.7423 15.8578 17.1205 16.3595 16.6055C16.8612 16.0905 17.4669 15.833 18.1766 15.833C18.8862 15.833 19.4919 16.0905 19.9936 16.6055C20.4953 17.1205 20.7461 17.7423 20.7461 18.4708C20.7461 19.1993 20.4953 19.8211 19.9936 20.3361C19.4919 20.8511 18.8862 21.1086 18.1766 21.1086ZM16.5614 31.2829H19.7917L20.3056 27.0624C21.1132 26.8615 21.878 26.5474 22.5999 26.1204C23.3219 25.6933 23.9765 25.1783 24.5638 24.5754L28.4549 26.3088L29.9233 23.5956L26.4727 20.9955C26.5706 20.5685 26.6501 20.1477 26.7113 19.7332C26.7725 19.3187 26.803 18.8979 26.803 18.4708C26.803 18.0437 26.7786 17.6229 26.7296 17.2084C26.6807 16.7939 26.595 16.3731 26.4727 15.9461L29.9233 13.346L28.4549 10.6328L24.5638 12.3662C24.001 11.713 23.3647 11.1666 22.655 10.727C21.9453 10.2874 21.1622 10.0048 20.3056 9.87915L19.7917 5.65869H16.5614L16.0475 9.87915C15.2154 10.055 14.4384 10.3565 13.7165 10.7835C12.9945 11.2106 12.3521 11.7382 11.7893 12.3662L7.89818 10.6328L6.42984 13.346L9.88044 15.9461C9.78255 16.3731 9.70301 16.7939 9.64183 17.2084C9.58065 17.6229 9.55006 18.0437 9.55006 18.4708C9.55006 18.8979 9.58065 19.3187 9.64183 19.7332C9.70301 20.1477 9.78255 20.5685 9.88044 20.9955L6.42984 23.5956L7.89818 26.3088L11.7893 24.5754C12.3766 25.1783 13.0312 25.6933 13.7532 26.1204C14.4751 26.5474 15.2399 26.8615 16.0475 27.0624L16.5614 31.2829Z" fill="#F2F2F2"/>
</svg>
